<svg id="Layer_1" data-name="Layer 1" xmlns="http://www.w3.org/2000/svg" xmlns:xlink="http://www.w3.org/1999/xlink" viewBox="0 0 57.541 64.352"><defs><style>.cls-1{fill:none;}.cls-2{clip-path:url(#clip-path);}.cls-3{fill:#fff;}</style><clipPath id="clip-path" transform="translate(-930.77 -508.285)"><rect class="cls-1" x="930.769" y="508.285" width="57.559" height="64.352"/></clipPath></defs><title>flower_icon</title><g class="cls-2"><g id="Group_29" data-name="Group 29"><path id="Path_13" data-name="Path 13" class="cls-3" d="M932.1,533.34a10.085,10.085,0,0,0,3.728,2.553,5.975,5.975,0,0,1-.535.341l-.292.155c-.713.373-1.6.839-1.822,1.817a.635.635,0,0,0,.479.761l.03.006a30.749,30.749,0,0,0,11.406-.129,9.861,9.861,0,0,0,3.018-1.011,4.524,4.524,0,0,0,2.189-2.6,3.749,3.749,0,0,0,.154-1.246,14.185,14.185,0,0,1,5.458,5.667,1.767,1.767,0,0,0-.888.092c-1.967.637-4.229,2.323-6.723,5.013a9.039,9.039,0,0,0-2.571,4.659,1.352,1.352,0,0,0,.118.88,1.042,1.042,0,0,0,.668.511,1.231,1.231,0,0,0,.308.037,2.12,2.12,0,0,0,1.081-.356,23.2,23.2,0,0,0,4.829-4.125,33.149,33.149,0,0,0,2.768-3.66l.144-.211a6.15,6.15,0,0,0,.9-1.622,16.95,16.95,0,0,1,1.648,5.9c-.024.555-.043,1.1-.057,1.614a144.493,144.493,0,0,0,1.267,23.711.635.635,0,0,0,.628.54.554.554,0,0,0,.1-.007.634.634,0,0,0,.533-.722v0a143.251,143.251,0,0,1-1.253-23.482A51.9,51.9,0,0,1,960.9,536.47a4.132,4.132,0,0,0,.378.2,26.547,26.547,0,0,0,10.834,2.074c.8,0,1.516-.028,2.116-.064a1.781,1.781,0,0,0,.965-.279,1.446,1.446,0,0,0,.42-1.737,2.733,2.733,0,0,0-.891-1.052A13.354,13.354,0,0,0,968.869,533a14.052,14.052,0,0,0-5.609.1,11.546,11.546,0,0,0-1.376.394c1.616-4.046,4.086-7.147,7.052-8.807a5.608,5.608,0,0,0,.833,1.121,8.056,8.056,0,0,0,5.862,2.264,10.319,10.319,0,0,0,1.815-.161,22.639,22.639,0,0,0,7.222-3.07,1.386,1.386,0,0,0,.612-.6,1.057,1.057,0,0,0-.077-1.02,6.905,6.905,0,0,0,2.279-1.727,3.338,3.338,0,0,0,.308-3.991,4.53,4.53,0,0,0-1.141-.987l-.283-.2a1.559,1.559,0,0,1-.724-.882,2.078,2.078,0,0,1-.016-.306,2.056,2.056,0,0,0-.159-.913,1.5,1.5,0,0,0-.936-.778,6.974,6.974,0,0,0,.725-.773,1.948,1.948,0,0,0,.489-1.156,1.664,1.664,0,0,0-.308-.951,2.656,2.656,0,0,0-1.492-1.081,4.19,4.19,0,0,0-1.538-.066,19.144,19.144,0,0,0-4.1.878,6.622,6.622,0,0,0-.666-1.259,1.478,1.478,0,0,0-1.193-.741,1.505,1.505,0,0,0-.881.379l-3.863,3a22.673,22.673,0,0,0-3.527,3.161,6.623,6.623,0,0,0-1.466,2.653,8.529,8.529,0,0,0-.114,2.714,6.416,6.416,0,0,0,1.177,3.7c-3.3,2.062-5.97,5.747-7.568,10.463-.045.132-.079.267-.121.4a1.087,1.087,0,0,0-.092.3,39.284,39.284,0,0,0-1.458,7.281c-1.305-3.768-3.872-7.5-7.281-9.376a5.252,5.252,0,0,0,1.234-3.794,8.538,8.538,0,0,0-1.805-4.948,6.549,6.549,0,0,0-1.9-1.833,8.652,8.652,0,0,0-2.355-.867,10.326,10.326,0,0,1-1.6-.507,10.192,10.192,0,0,1-1.43-.839c-.373-.246-.747-.492-1.139-.706a3.986,3.986,0,0,0-3.479-.391,1.09,1.09,0,0,0-.562.5,1.122,1.122,0,0,0-.015.861c.035.11.073.22.109.33a3.292,3.292,0,0,0-2.572,1.3,4.814,4.814,0,0,0-.819,1.841l-.113.4a.62.62,0,0,1-.576.644l-.186.082a4.037,4.037,0,0,0-2.252,1.992,4.489,4.489,0,0,0-.25,1.528c-.006.139-.011.277-.021.413a1.5,1.5,0,0,1-.433,1.08.643.643,0,0,0-.265.376c-.338,1.349.834,2.489,1.274,2.918m37.875-16.14a17.348,17.348,0,0,1,2.1-2.922,48.847,48.847,0,0,1,4.06-4.218,2.769,2.769,0,0,1,.277-.23c-.573.787-1.187,1.583-1.786,2.355-2.658,3.431-5.4,6.979-5.613,11.139a1.46,1.46,0,0,1-.194-.183,10.308,10.308,0,0,1,1.156-5.941m6.966-6.855v.009c-.347,3.982-3.029,7.471-5.2,10.3a14.105,14.105,0,0,1-1.454,1.7,3.805,3.805,0,0,1-.474.365,3.442,3.442,0,0,0-.462.362c.3-3.95,2.96-7.379,5.531-10.7.617-.8,1.247-1.618,1.836-2.432.081.13.16.26.23.4m-1.683,11.069c.012,0,.022.007.033.007a18.884,18.884,0,0,1,7.631,1.775.412.412,0,0,0,.04.033.543.543,0,0,0,.116.044l.128.064a9.338,9.338,0,0,0-3.457.3c-.489.139-.97.32-1.436.494-.391.148-.8.3-1.2.424a10.65,10.65,0,0,1-6.161.006,7.953,7.953,0,0,0,1.786-.85,10.947,10.947,0,0,0,2.521-2.3m1.951,5.237a7.293,7.293,0,0,1-6.532-1.728c-.046-.048-.08-.1-.123-.148a11.049,11.049,0,0,0,3.464.56,10.8,10.8,0,0,0,3.189-.475c.413-.128.822-.282,1.219-.431.46-.173.934-.351,1.411-.487a9.061,9.061,0,0,1,3.76-.25.151.151,0,0,0,.15-.085c.022.012.047.022.07.035a1.266,1.266,0,0,1,.17.11,21.2,21.2,0,0,1-6.778,2.9m8.4-9.3.309.214a3.483,3.483,0,0,1,.839.7,2.09,2.09,0,0,1-.282,2.429,6.734,6.734,0,0,1-2.335,1.629,10.974,10.974,0,0,0,.8-2.481,2.572,2.572,0,0,0-.032-1.4,3.094,3.094,0,0,0-.729-1.035c-1.128-1.25-1.322-1.962-1.255-2.185a1.947,1.947,0,0,1,.409-.61c.633-.073.92.03.977.149a1.168,1.168,0,0,1,.036.377,3.471,3.471,0,0,0,.034.5,2.7,2.7,0,0,0,1.237,1.712m-6.877-5.88a17.874,17.874,0,0,1,3.786-.8,3.136,3.136,0,0,1,1.076.027,1.377,1.377,0,0,1,.769.558.474.474,0,0,1,.1.228,1.1,1.1,0,0,1-.231.406,8.825,8.825,0,0,1-.867.884,5.682,5.682,0,0,0-1.666,2.086c-.252.867.252,1.977,1.542,3.4l.088.1a1.842,1.842,0,0,1,.385.514,1.491,1.491,0,0,1-.021.727,9.676,9.676,0,0,1-.724,2.232,20.164,20.164,0,0,0-6.756-1.635,13.7,13.7,0,0,0,2.385-4.87,8.688,8.688,0,0,0,.071-3.787.606.606,0,0,0,.067-.067m-1.379,3.558a13.267,13.267,0,0,1-2.66,5.056,10.7,10.7,0,0,1-2.648,2.552,4.414,4.414,0,0,1-2.629.841,1.832,1.832,0,0,1,.548-.5,4.217,4.217,0,0,0,.512-.4,14.42,14.42,0,0,0,1.5-1.759c2.085-2.712,4.653-6.06,5.184-9.912a7.141,7.141,0,0,1,.184,4.124m-9.426,2.75a5.4,5.4,0,0,1,1.2-2.139,21.686,21.686,0,0,1,3.335-2.978l2.424-1.883c-1.072,1.047-2.1,2.146-3.07,3.282a17.6,17.6,0,0,0-2.138,2.978,10.621,10.621,0,0,0-1.236,5.619,6.673,6.673,0,0,1-.593-2.559,7.526,7.526,0,0,1,.078-2.32m-29.023,15.261c-.619-.176-.924-1.015-1.028-1.369a5.97,5.97,0,0,1,2.007-6.155c.332.965.664,1.931,1,2.884a6.971,6.971,0,0,0,1,2.025,2.025,2.025,0,0,0,.707.5,9.862,9.862,0,0,0-3.141,1.654c-.185.147-.354.307-.528.464,0,0-.009-.006-.014-.008m.842-12.926a23.9,23.9,0,0,1,2.377,2.132,19.17,19.17,0,0,0,3.011,2.576c.384.246.789.466,1.18.68a12.363,12.363,0,0,1,1.732,1.068,6.243,6.243,0,0,1,2.312,5.2,4.816,4.816,0,0,0-1.976-2.357,17.114,17.114,0,0,0-1.6-.9,14.237,14.237,0,0,1-1.8-1.048,14.023,14.023,0,0,1-3.637-4.656,30.1,30.1,0,0,0-1.7-2.67c.034-.006.066-.017.1-.021m1.315,2.854a10.894,10.894,0,0,0,5.569,5.827,17.08,17.08,0,0,1,1.572.887,4.41,4.41,0,0,1,1.944,2.554,2.664,2.664,0,0,1-.225.171c-.023-.036-.042-.073-.067-.109a4.607,4.607,0,0,0-3.471-1.818c-.162-.012-.323-.009-.484-.013a.651.651,0,0,0-.077-.013,7.124,7.124,0,0,1-2.946-.808,5.934,5.934,0,0,1-.8-1.667q-1.3-3.624-2.512-7.4c.539.766,1.022,1.589,1.489,2.394M937.1,537.442c.387-.048.786-.1,1.178-.185a36.085,36.085,0,0,0,10.64-4.078,1.906,1.906,0,0,1-.79,1.65,11.452,11.452,0,0,1-6.373,2.521c-1.019.132-2.062.2-3.071.266-.3.019-.59.039-.884.06-.23.016-.476.024-.73.032a10.1,10.1,0,0,0-1.869.177,6.011,6.011,0,0,1,1.9-.443m1.586-2.388a18.5,18.5,0,0,1,1.572-1.469,8.815,8.815,0,0,1,6.061-1.839,3.444,3.444,0,0,1,2.424,1.16,35.761,35.761,0,0,1-10.536,4.04c-.375.083-.768.132-1.148.18-.355.045-.712.092-1.059.166a12.783,12.783,0,0,0,2.685-2.239m10.4-.172a3.32,3.32,0,0,1-1.6,1.848,8.794,8.794,0,0,1-2.636.868,29.42,29.42,0,0,1-8.417.453c.217-.012.434-.019.644-.026.26-.009.51-.017.743-.033l.882-.059c1.015-.066,2.062-.134,3.092-.268a11.765,11.765,0,0,0,6.546-2.6,3.1,3.1,0,0,0,.837-1.174,2.375,2.375,0,0,1-.092.991M942.7,521.234a8.7,8.7,0,0,0,3.414,1.515,7.559,7.559,0,0,1,2.019.726,5.363,5.363,0,0,1,1.524,1.5,7.424,7.424,0,0,1,1.559,4.2,4.643,4.643,0,0,1-.51,2.427,6.58,6.58,0,0,0-2.445-5.282,12.83,12.83,0,0,0-1.772-1.1c-.387-.211-.787-.429-1.161-.669a19.071,19.071,0,0,1-2.96-2.534,27.309,27.309,0,0,0-2.08-1.9,4.03,4.03,0,0,1,1.369.464c.36.2.7.422,1.045.649m-9.908,7.833c.011-.152.018-.306.024-.459a3.472,3.472,0,0,1,.158-1.108,2.763,2.763,0,0,1,1.589-1.3l.18-.079a1.742,1.742,0,0,0,1.282-1.446l.121-.423a3.751,3.751,0,0,1,.594-1.394,1.943,1.943,0,0,1,1.817-.791.61.61,0,0,0,.181,0c.242.736.48,1.473.728,2.208a7.169,7.169,0,0,0-2.794,7.767,3.421,3.421,0,0,0,1.282,1.947l-.177.175c-.242.244-.48.479-.72.709-1.527-.149-2.859-1.256-4.069-2.438-.641-.624-.948-1.112-.949-1.514a2.725,2.725,0,0,0,.754-1.852" transform="translate(-930.77 -508.285)"/><path id="Path_14" data-name="Path 14" class="cls-3" d="M956.092,520.413a2.554,2.554,0,0,0-1.687-.492.68.68,0,0,0-.492.352c-.358.7,1.646,5.137,1.668,5.179a23.927,23.927,0,0,0,2.964,4.323l.167.206a2.192,2.192,0,0,0,1.609,1.039,1.6,1.6,0,0,0,.461-.071,2.023,2.023,0,0,0,1.262-2.084,10.135,10.135,0,0,0-1.977-4.582,13.413,13.413,0,0,0-3.976-3.871" transform="translate(-930.77 -508.285)"/></g></g></svg>